<?xml version="1.0" encoding="utf-8"?>
<!-- Generator: Adobe Illustrator 16.1.0, SVG Export Plug-In . SVG Version: 6.00 Build 0)  -->
<!DOCTYPE svg PUBLIC "-//W3C//DTD SVG 1.1//EN" "http://www.w3.org/Graphics/SVG/1.1/DTD/svg11.dtd">
<svg version="1.1" xmlns="http://www.w3.org/2000/svg" xmlns:xlink="http://www.w3.org/1999/xlink" x="0px" y="0px" width="337px"
	 height="102px" viewBox="0 0 337 102" enable-background="new 0 0 337 102" xml:space="preserve">
<g id="Layer_1">
	<rect x="-965.5" y="-723.5" fill="#FFFFFF" stroke="#000000" stroke-miterlimit="10" width="321" height="480"/>
	<rect x="-589.5" y="-723.5" fill="#FFFFFF" stroke="#000000" stroke-miterlimit="10" width="321" height="480"/>
</g>
<g id="Layer_2">
	<circle fill="#808080" stroke="#808080" stroke-width="6" stroke-miterlimit="10" cx="-935.199" cy="106.108" r="37.473"/>
	<path opacity="0.6" fill="#FFFFFF" d="M-194.245,299h-149.069l-11.406-15l-11.406,15h-121.818c-3.345,0-6.056,2.676-6.056,5.989
		V443c0,3.312,2.711,6,6.056,6h293.699c3.344,0,6.245-2.688,6.245-6V304.989C-188,301.676-190.901,299-194.245,299z"/>
	<rect x="660" y="-737" opacity="0.3" fill="#F2F2F2" width="306" height="457"/>
	<rect x="-591" y="-724" opacity="0.8" fill="#F4F4EF" width="322" height="480"/>
	<g>
		<rect x="-967" y="-724" fill="#F4F4EF" width="324" height="480"/>
		<rect x="-952" y="-337" fill="#CCCCCC" width="297" height="10"/>
		<ellipse fill="#EA545F" cx="-860.667" cy="-332.667" rx="13.333" ry="13.667"/>
		<circle fill="#FFFFFF" cx="-806" cy="-548" r="134"/>
		<path opacity="0.9" fill="#EA545F" d="M-759-264c0,3.313-2.687,6-6,6h-72c-3.313,0-6-2.687-6-6v-26c0-3.313,2.687-6,6-6h72
			c3.313,0,6,2.687,6,6V-264z"/>
		<circle fill="#F2F2F2" cx="-860.514" cy="-332.515" r="8.486"/>
		<rect x="-864.667" y="-622" fill="none" width="139" height="68"/>
		<text transform="matrix(1 0 0 1 -864.667 -587.9204)" fill="#333333" font-family="'CicleFina'" font-size="48">10 min</text>
	</g>
	<rect x="-591" y="-283" fill="#CCCCCC" width="322" height="39"/>
	<rect x="-591" y="-724" fill="#E6E6E6" width="322" height="39"/>
	<rect x="-20" y="-747" fill="#F4F4EF" width="324" height="480"/>
	<rect x="-5" y="-360" fill="#1A1A1A" width="297" height="10"/>
	<ellipse fill="#8CCDF9" cx="86.333" cy="-355.667" rx="13.333" ry="13.667"/>
	<circle fill="#FFFFFF" cx="141" cy="-571" r="134"/>
	<path opacity="0.9" fill="#8CCDF9" d="M188-287c0,3.313-2.687,6-6,6h-72c-3.313,0-6-2.687-6-6v-26c0-3.313,2.687-6,6-6h72
		c3.313,0,6,2.687,6,6V-287z"/>
	<circle fill="#1A1A1A" cx="86.485" cy="-355.515" r="8.485"/>
	<rect x="82.333" y="-645" fill="none" width="139" height="68"/>
	<text transform="matrix(1 0 0 1 82.333 -610.9204)" fill="#333333" font-family="'CicleFina'" font-size="48">10 min</text>
	<rect x="316" y="-747" fill="#F4F4EF" width="324" height="480"/>
	<rect x="331" y="-360" fill="#4D4D4D" width="297" height="10"/>
	<ellipse opacity="0.8" fill="#66BFBB" cx="422.333" cy="-355.667" rx="13.333" ry="13.667"/>
	<circle fill="#FFFFFF" cx="477" cy="-571" r="134"/>
	<path opacity="0.8" fill="#66BFBB" d="M524-287c0,3.313-2.687,6-6,6h-72c-3.313,0-6-2.687-6-6v-26c0-3.313,2.687-6,6-6h72
		c3.313,0,6,2.687,6,6V-287z"/>
	<circle fill="#F2F2F2" cx="422.485" cy="-355.515" r="8.485"/>
	<rect x="418.333" y="-645" fill="none" width="139" height="68"/>
	<text transform="matrix(1 0 0 1 418.333 -610.9204)" fill="#333333" font-family="'CicleFina'" font-size="48">10 min</text>
	<circle opacity="0.8" fill="#FFFFFF" cx="818" cy="-577" r="134"/>
	<rect x="664" y="-368" fill="#CCCCCC" width="297" height="10"/>
	<ellipse opacity="0.8" fill="#333333" cx="758.333" cy="-363.667" rx="13.333" ry="13.667"/>
	<circle fill="#F2F2F2" cx="758.485" cy="-363.515" r="8.485"/>
	<rect x="754.333" y="-646" fill="none" width="139" height="68"/>
	<text transform="matrix(1 0 0 1 754.333 -611.9204)" fill="#333333" font-family="'CicleFina'" font-size="48">10 min</text>
	<g>
		<path opacity="0.3" fill="#FFFFFF" stroke="#E6E6E6" stroke-miterlimit="10" d="M859.5-300.5c0,3.313-2.687,6-6,6h-72
			c-3.313,0-6-2.687-6-6v-26c0-3.313,2.687-6,6-6h72c3.313,0,6,2.687,6,6V-300.5z"/>
		<path fill="none" stroke="#FFFFFF" stroke-width="2" stroke-miterlimit="10" d="M859-300c0,3.313-2.687,6-6,6h-72
			c-3.313,0-6-2.687-6-6v-26c0-3.313,2.687-6,6-6h72c3.313,0,6,2.687,6,6V-300z"/>
	</g>
	<circle opacity="0.8" fill="#FFFFFF" cx="-337" cy="154" r="134"/>
	<rect x="-491" y="363" fill="#4D4D4D" width="297" height="10"/>
	<ellipse opacity="0.8" fill="#333333" cx="-396.667" cy="367.333" rx="13.333" ry="13.667"/>
	<circle fill="#F2F2F2" cx="-396.515" cy="367.485" r="8.485"/>
	<rect x="-400.667" y="85" fill="none" width="139" height="68"/>
	<text transform="matrix(1 0 0 1 -400.667 119.0801)" fill="#333333" font-family="'CicleFina'" font-size="48">10 min</text>
	<g>
		<path opacity="0.3" fill="#4D4D4D" d="M-295,431c0,3.313-2.687,6-6,6h-72c-3.313,0-6-2.687-6-6v-26c0-3.313,2.687-6,6-6h72
			c3.313,0,6,2.687,6,6V431z"/>
		<path fill="#4D4D4D" d="M-295,431c0,3.313-2.687,6-6,6h-72c-3.313,0-6-2.687-6-6v-26c0-3.313,2.687-6,6-6h72c3.313,0,6,2.687,6,6
			V431z"/>
	</g>
	<path fill="#E27D90" stroke="#FFFFFF" stroke-width="3" stroke-miterlimit="10" d="M-902.516,48.687l-34.586,60.398l55.833-40.137
		C-886.777,60.739-894.037,53.807-902.516,48.687z"/>
	<path fill="#67C9BD" stroke="#FFFFFF" stroke-width="3" stroke-miterlimit="10" d="M-997.964,102.932l70.18,6.305l-68.288-20.144
		C-997.153,93.548-997.796,98.179-997.964,102.932z"/>
	<path fill="none" stroke="#CCCCCC" stroke-width="6" stroke-miterlimit="10" d="M-808.925,94
		c5.573-13.703,19.021-23.364,34.727-23.364c5.027,0,9.823,0.99,14.204,2.786"/>
	<path fill="none" stroke="#CCCCCC" stroke-width="6" stroke-miterlimit="10" d="M-740.851,90.998
		c2.637,5.129,4.125,10.945,4.125,17.11c0,20.696-16.777,37.474-37.473,37.474c-19.723,0-35.888-15.236-37.363-34.583"/>
	<path fill="#E27D90" d="M-739.516,48.687l-34.586,60.398l55.833-40.137C-723.777,60.739-731.037,53.807-739.516,48.687z"/>
	<path fill="#67C9BD" d="M-842.964,102.932l70.18,6.305l-68.288-20.144C-842.153,93.548-842.796,98.179-842.964,102.932z"/>
	<path fill="none" stroke="#CCCCCC" stroke-width="6" stroke-miterlimit="10" d="M-642.925,98
		c5.573-13.703,19.021-23.364,34.727-23.364c5.027,0,9.823,0.99,14.204,2.786"/>
	<path fill="none" stroke="#CCCCCC" stroke-width="6" stroke-miterlimit="10" d="M-574.851,94.998
		c2.637,5.129,4.125,10.945,4.125,17.11c0,20.696-16.777,37.474-37.473,37.474c-19.723,0-35.888-15.236-37.363-34.583"/>
	<path opacity="0.9" fill="#8CCDF9" d="M-573.516,52.687l-34.586,60.398l55.833-40.137
		C-557.777,64.739-565.037,57.807-573.516,52.687z"/>
	<path fill="#67C9BD" d="M-676.964,106.932l70.18,6.305l-68.288-20.144C-676.153,97.548-676.796,102.179-676.964,106.932z"/>
	<path fill="#CCCCCC" stroke="#CCCCCC" stroke-miterlimit="10" d="M-599.5,70.795c0,2.799-3.323,4.705-8.039,4.705h-1.423
		c-4.715,0-8.539-1.906-8.539-4.705v-4.226c0-2.8,3.823-5.069,8.539-5.069h1.423c4.715,0,8.039,2.27,8.039,5.069V70.795z"/>
	<circle fill="none" stroke="#66BFBB" stroke-width="6" stroke-miterlimit="10" cx="44.801" cy="56.108" r="37.473"/>
	<path fill="#66BFBB" stroke="#66BFBB" stroke-miterlimit="10" d="M53.5,13.795c0,2.799-3.323,4.705-8.039,4.705h-1.422
		c-4.716,0-8.539-1.906-8.539-4.705V9.569c0-2.8,3.823-5.069,8.539-5.069h1.422c4.716,0,8.039,2.27,8.039,5.069V13.795z"/>
	<line fill="none" stroke="#66BFBB" stroke-width="5" stroke-miterlimit="10" x1="25" y1="44.5" x2="67" y2="44.5"/>
	<line fill="none" stroke="#66BFBB" stroke-width="5" stroke-miterlimit="10" x1="25" y1="56.5" x2="67" y2="56.5"/>
	<line fill="none" stroke="#66BFBB" stroke-width="5" stroke-miterlimit="10" x1="25" y1="68.5" x2="55" y2="68.5"/>
	<circle fill="none" stroke="#CCCCCC" stroke-width="6" stroke-miterlimit="10" cx="-779.199" cy="224.108" r="37.473"/>
	<path fill="#CCCCCC" stroke="#CCCCCC" stroke-miterlimit="10" d="M-768.5,182.795c0,2.799-3.323,4.705-8.039,4.705h-1.423
		c-4.715,0-8.539-1.906-8.539-4.705v-4.226c0-2.8,3.823-5.069,8.539-5.069h1.423c4.715,0,8.039,2.27,8.039,5.069V182.795z"/>
	<path fill="#74D6C5" d="M-746.59,236.209l-33.453-13.167l-1.368,36.973C-765.808,260.002-752.101,250.303-746.59,236.209z"/>
	<path opacity="0.9" fill="#8CCDF9" d="M64-190c0,3.313-2.687,6-6,6h-72c-3.313,0-6-2.687-6-6v-26c0-3.313,2.687-6,6-6h72
		c3.313,0,6,2.687,6,6V-190z"/>
	<text transform="matrix(1 0 0 1 87 -198)" font-family="'MyriadPro-Regular'" font-size="14"># 8CCDF9</text>
	<path opacity="0.8" fill="#66BFBB" d="M400-197c0,3.313-2.687,6-6,6h-72c-3.313,0-6-2.687-6-6v-26c0-3.313,2.687-6,6-6h72
		c3.313,0,6,2.687,6,6V-197z"/>
	<text transform="matrix(1 0 0 1 414 -206)" font-family="'MyriadPro-Regular'" font-size="12">66BFBB</text>
	<path fill="none" stroke="#CCCCCC" stroke-width="6" stroke-miterlimit="10" d="M-642.925,209
		c5.573-13.703,19.021-23.364,34.727-23.364c5.027,0,9.823,0.99,14.204,2.786"/>
	<path fill="none" stroke="#CCCCCC" stroke-width="6" stroke-miterlimit="10" d="M-574.851,205.998
		c2.637,5.129,4.125,10.945,4.125,17.11c0,20.696-16.777,37.474-37.473,37.474c-19.723,0-35.888-15.236-37.363-34.583"/>
	<path fill="#67C9BD" d="M-573.516,163.687l-34.586,60.398l55.833-40.137C-557.777,175.739-565.037,168.807-573.516,163.687z"/>
	<path fill="#67C9BD" d="M-676.964,217.932l70.18,6.305l-68.288-20.144C-676.153,208.548-676.796,213.179-676.964,217.932z"/>
	<path fill="#CCCCCC" stroke="#CCCCCC" stroke-miterlimit="10" d="M-599.5,181.795c0,2.799-3.323,4.705-8.039,4.705h-1.423
		c-4.715,0-8.539-1.906-8.539-4.705v-4.226c0-2.8,3.823-5.069,8.539-5.069h1.423c4.715,0,8.039,2.27,8.039,5.069V181.795z"/>
	<path fill="#F4F4EF" d="M64-146c0,3.313-2.687,6-6,6h-72c-3.313,0-6-2.687-6-6v-26c0-3.313,2.687-6,6-6h72c3.313,0,6,2.687,6,6
		V-146z"/>
	<text transform="matrix(1 0 0 1 85 -157)" font-family="'MyriadPro-Regular'" font-size="14"># F4F4EF</text>
	<path fill="#1A1A1A" d="M64-101c0,3.313-2.687,6-6,6h-72c-3.313,0-6-2.687-6-6v-26c0-3.313,2.687-6,6-6h72c3.313,0,6,2.687,6,6
		V-101z"/>
	<text transform="matrix(1 0 0 1 83 -114)" font-family="'MyriadPro-Regular'" font-size="14"># 000000</text>
	<path fill="#F4F4EF" d="M400-152c0,3.313-2.687,6-6,6h-72c-3.313,0-6-2.687-6-6v-26c0-3.313,2.687-6,6-6h72c3.313,0,6,2.687,6,6
		V-152z"/>
	<text transform="matrix(1 0 0 1 421 -163)" font-family="'MyriadPro-Regular'" font-size="14"># F4F4EF</text>
	<path fill="#4D4D4D" d="M400-108c0,3.313-2.687,6-6,6h-72c-3.313,0-6-2.687-6-6v-26c0-3.313,2.687-6,6-6h72c3.313,0,6,2.687,6,6
		V-108z"/>
	<text transform="matrix(1 0 0 1 419 -121)" font-family="'MyriadPro-Regular'" font-size="14"># 4D4D4D</text>
	<path fill="none" stroke="#CCCCCC" stroke-width="6" stroke-miterlimit="10" d="M-814.925,336
		c5.573-13.703,19.021-23.364,34.727-23.364c5.027,0,9.823,0.99,14.204,2.786"/>
	<path fill="none" stroke="#CCCCCC" stroke-width="6" stroke-miterlimit="10" d="M-746.851,332.998
		c2.637,5.129,4.125,10.945,4.125,17.11c0,20.696-16.777,37.474-37.473,37.474c-19.723,0-35.888-15.236-37.363-34.583"/>
	<path fill="#4D4D4D" d="M-745.516,290.687l-34.586,60.398l55.833-40.137C-729.777,302.739-737.037,295.807-745.516,290.687z"/>
	<path fill="#4D4D4D" d="M-848.964,344.932l70.18,6.305l-68.288-20.144C-848.153,335.548-848.796,340.179-848.964,344.932z"/>
	<path fill="#CCCCCC" stroke="#CCCCCC" stroke-miterlimit="10" d="M-771.5,308.795c0,2.799-3.323,4.705-8.039,4.705h-1.423
		c-4.715,0-8.539-1.906-8.539-4.705v-4.226c0-2.8,3.823-5.069,8.539-5.069h1.423c4.715,0,8.039,2.27,8.039,5.069V308.795z"/>
	<path fill="none" stroke="#CCCCCC" stroke-width="6" stroke-miterlimit="10" d="M-636.925,333
		c5.573-13.703,19.021-23.364,34.727-23.364c5.027,0,9.823,0.99,14.204,2.786"/>
	<path fill="none" stroke="#CCCCCC" stroke-width="6" stroke-miterlimit="10" d="M-568.851,329.998
		c2.637,5.129,4.125,10.945,4.125,17.11c0,20.696-16.777,37.474-37.473,37.474c-19.723,0-35.888-15.236-37.363-34.583"/>
	<path fill="#CCCCCC" stroke="#CCCCCC" stroke-miterlimit="10" d="M-593.5,305.795c0,2.799-3.323,4.705-8.039,4.705h-1.423
		c-4.715,0-8.539-1.906-8.539-4.705v-4.226c0-2.8,3.823-5.069,8.539-5.069h1.423c4.715,0,8.039,2.27,8.039,5.069V305.795z"/>
	<circle fill="none" stroke="#CCCCCC" stroke-width="6" stroke-miterlimit="10" cx="-602.199" cy="348.108" r="37.473"/>
	<path fill="#4D4D4D" d="M-567.516,287.687l-34.586,60.398l55.833-40.137C-551.777,299.739-559.037,292.807-567.516,287.687z"/>
	<text transform="matrix(1 0 0 1 105 71)" fill="#66BFBB" font-family="'Roboto-Light'" font-size="63.3648">Minutes</text>
</g>
</svg>
